<svg id="Layer_2" height="512" viewBox="0 0 128 128" width="512" xmlns="http://www.w3.org/2000/svg" data-name="Layer 2"><path d="m126.25 100.432h-124.5a1.75 1.75 0 0 0 -1.75 1.75v7.777a1.75 1.75 0 0 0 1.75 1.75h124.5a1.75 1.75 0 0 0 1.75-1.75v-7.777a1.75 1.75 0 0 0 -1.75-1.75zm-1.75 7.777h-121v-4.277h121z"/><path d="m8.129 65.765a1.751 1.751 0 0 0 1.239 1.243l33.108 8.871a7.058 7.058 0 0 0 3.135 11.84 7.1 7.1 0 0 0 1.84.244 7.057 7.057 0 0 0 6.795-8.93l3.931 1.053a7.055 7.055 0 0 0 3.13 11.839 7.1 7.1 0 0 0 1.84.244 7.058 7.058 0 0 0 6.795-8.931l39.158 10.493a12.983 12.983 0 0 0 15.91-9.186 1.748 1.748 0 0 0 -.468-1.705l-1.812-1.771-7.125-6.958a41.979 41.979 0 0 0 -16.048-9.756c-.878-.291-1.614-.514-2.406-.723l-23.9-5.061-12.409-38.476a1.751 1.751 0 0 0 -1.213-1.153l-9.669-2.591a1.751 1.751 0 0 0 -2.2 1.6l-.975 19.628-2.627-.7a5.688 5.688 0 1 0 -2.944 10.988l4.993 1.333-.179 3.606-25.636-5.423-4.83-13.129a1.75 1.75 0 0 0 -2.981-.522l-9.241 10.986a1.75 1.75 0 0 0 -.354 1.574zm58.446 20.26a3.561 3.561 0 1 1 -3.447-4.486 3.6 3.6 0 0 1 .93.123 3.561 3.561 0 0 1 2.518 4.362zm-16.052-6.91a3.542 3.542 0 0 1 .355 2.7 3.561 3.561 0 1 1 -3.447-4.487 3.6 3.6 0 0 1 .93.123 3.535 3.535 0 0 1 2.162 1.664zm64.977-.215-13.593-3.642a2.254 2.254 0 0 1 -1.666-2.106l.344-4.7a38.48 38.48 0 0 1 12.576 8.162zm-44.375-15.513-4.05-1.087-1.675-10.507 2.169.58zm-30.554-21.581a2.193 2.193 0 0 1 2.68-1.547l4.719 1.265 6.03 1.615a2.187 2.187 0 1 1 -1.132 4.226l-10.749-2.88a2.191 2.191 0 0 1 -1.548-2.679zm11.387 8.939a5.687 5.687 0 1 0 2.942-10.987l-4.659-1.249.9-18.217 6.659 1.783 8.492 26.332-2.588-.693a1.751 1.751 0 0 0 -2.182 1.965l2.278 14.294a1.75 1.75 0 0 0 1.275 1.416l7.325 1.964 1.1 3.4-24.531-6.573.7-14.049zm-38.64-12.453 4.122 11.208a1.75 1.75 0 0 0 1.28 1.107l27.132 5.744-.45 9.066a1.751 1.751 0 0 0 1.298 1.777l29 7.771a1.773 1.773 0 0 0 2.119-2.228l-3.33-10.325 21.849 4.624c.266.071.538.148.824.233l-.417 5.7v.135a5.761 5.761 0 0 0 4.255 5.535l19.612 5.256.71.693a9.5 9.5 0 0 1 -11.315 5.763l-98.753-26.461-4.654-17.614z"/></svg>