<?xml version="1.0" encoding="iso-8859-1"?>
<!-- Generator: Adobe Illustrator 19.0.0, SVG Export Plug-In . SVG Version: 6.00 Build 0)  -->
<svg version="1.1" id="Capa_1" xmlns="http://www.w3.org/2000/svg" xmlns:xlink="http://www.w3.org/1999/xlink" x="0px" y="0px"
	 viewBox="0 0 495 495" style="enable-background:new 0 0 495 495;" xml:space="preserve">
<g>
	<path d="M454.695,337.648l-112.392-43.556l-7.379-51.654c-0.484-3.386-3.197-6.016-6.597-6.394l-62.779-6.976l21.066-63.199
		c0.629-1.887,0.482-3.947-0.407-5.726l-21.941-43.882L322.814,37.2c1.416-1.912,1.84-4.382,1.145-6.657
		c-0.696-2.275-2.43-4.085-4.673-4.878c-25.666-9.068-52.509-13.666-79.785-13.666c-63.973,0-124.116,24.912-169.352,70.148
		C24.913,127.382,0,187.526,0,251.499s24.913,124.116,70.148,169.352c45.229,45.229,105.362,70.14,169.324,70.148
		c0.01,0,0.019,0.002,0.029,0.002s0.019-0.002,0.028-0.002c69.7-0.008,134.596-30.289,179.317-80.795
		c1.732-0.865,3.118-2.395,3.766-4.367c14.579-17.287,26.855-36.802,36.24-58.18c0.823-1.874,0.844-4.002,0.059-5.892
		C458.126,339.874,456.604,338.387,454.695,337.648z M412.352,394.724l-74.697-22.409c-3.966-1.189-8.148,1.062-9.339,5.028
		c-1.19,3.968,1.061,8.149,5.028,9.339l21.886,6.566l-23.085,11.543c-3.705,1.852-5.207,6.357-3.354,10.062
		c1.314,2.628,3.962,4.147,6.714,4.147c1.127,0,2.271-0.255,3.348-0.793l37.34-18.67l25.131,7.539
		c-39.253,40.803-93.171,65.956-151.335,68.669l4.625-13.875c1.31-3.93-0.814-8.177-4.744-9.487
		c-3.929-1.311-8.177,0.814-9.487,4.744l-6.269,18.806c-57.95-1.355-112.23-24.558-153.362-65.689
		C38.352,367.842,15,311.465,15,251.499c0-53.65,18.705-104.418,53.008-144.885l22.188,22.189c1.464,1.464,3.384,2.197,5.303,2.197
		s3.839-0.732,5.303-2.197c2.929-2.929,2.929-7.678,0-10.606L78.09,95.483c0.884-0.913,1.763-1.829,2.664-2.73
		c34.789-34.788,78.986-56.741,126.851-63.508l-7.009,42.056L171,93.499c-3.314,2.485-3.985,7.186-1.5,10.5
		c1.474,1.965,3.726,3,6.006,3c1.565,0,3.145-0.489,4.494-1.5l32-24c1.543-1.157,2.581-2.864,2.898-4.767l8-48
		c0.064-0.382,0.088-0.76,0.093-1.136c5.467-0.395,10.972-0.597,16.509-0.597c22.148,0,43.993,3.234,65.077,9.624l-55.104,74.413
		c-1.681,2.27-1.944,5.292-0.681,7.817l22.61,45.222l-23.018,69.053c-0.716,2.148-0.423,4.506,0.798,6.414
		c1.221,1.908,3.238,3.162,5.489,3.412l66.225,7.358l7.178,50.248c0.384,2.685,2.186,4.953,4.715,5.933l109.051,42.261
		C433.812,365.441,423.869,380.834,412.352,394.724z"/>
	<path d="M352,155.499v32c0,2.702,1.454,5.195,3.805,6.526c1.147,0.65,2.422,0.974,3.695,0.974c1.336,0,2.672-0.357,3.859-1.069
		l120-72c1.905-1.143,3.206-3.072,3.55-5.268s-0.302-4.43-1.765-6.103l-56-64c-1.569-1.793-3.9-2.732-6.271-2.535
		c-2.375,0.199-4.513,1.514-5.761,3.543l-64,104C352.385,152.75,352,154.111,352,155.499z M367,157.621l57.555-93.527l43.392,49.59
		L367,174.252V157.621z"/>
	<path d="M494.088,215.915c-1.172-2.154-3.323-3.599-5.76-3.87l-72-8c-1.436-0.161-2.89,0.099-4.182,0.746l-32,16
		c-2.541,1.27-4.146,3.867-4.146,6.708s1.605,5.438,4.146,6.708l80,40c1.077,0.539,2.221,0.793,3.348,0.793
		c2.751,0,5.4-1.52,6.714-4.147l24-48C495.305,220.66,495.26,218.069,494.088,215.915z M460.146,257.436l-59.875-29.938
		l16.603-8.301l59.108,6.567L460.146,257.436z"/>
	<path d="M320,91.499v32c0,3.26,2.106,6.147,5.211,7.142c0.755,0.242,1.525,0.358,2.288,0.358c2.376,0,4.669-1.133,6.104-3.141
		l40-56c1.615-2.261,1.848-5.229,0.605-7.713l-16-32c-1.306-2.612-4.029-4.241-6.928-4.143c-2.919,0.085-5.523,1.858-6.673,4.542
		l-24,56C320.206,89.478,320,90.483,320,91.499z M335,93.038l17.023-39.722l6.749,13.498L335,100.096V93.038z"/>
	<path d="M332.803,166.196c-2.929-2.929-7.678-2.929-10.606,0l-16,16c-2.929,2.929-2.929,7.678,0,10.606
		c1.464,1.464,3.384,2.197,5.303,2.197s3.839-0.732,5.303-2.197l16-16C335.732,173.873,335.732,169.124,332.803,166.196z"/>
	<path d="M335.5,226.999h16c4.142,0,7.5-3.358,7.5-7.5s-3.358-7.5-7.5-7.5h-16c-4.142,0-7.5,3.358-7.5,7.5
		S331.358,226.999,335.5,226.999z"/>
	<path d="M421.128,298.614c0.787,0.262,1.586,0.387,2.373,0.387c3.14,0,6.066-1.988,7.114-5.13c1.31-3.93-0.814-8.177-4.744-9.487
		l-24-8c-3.929-1.31-8.177,0.814-9.487,4.744c-1.31,3.93,0.814,8.177,4.744,9.487L421.128,298.614z"/>
	<path d="M461.128,164.384l-24,8c-3.93,1.31-6.053,5.557-4.744,9.487c1.048,3.143,3.974,5.13,7.114,5.13
		c0.786,0,1.586-0.125,2.373-0.387l24-8c3.93-1.31,6.053-5.557,4.744-9.487C469.305,165.197,465.058,163.073,461.128,164.384z"/>
	<path d="M391.5,34.999c1.919,0,3.839-0.732,5.303-2.197l16-16c2.929-2.929,2.929-7.678,0-10.606c-2.929-2.929-7.678-2.929-10.606,0
		l-16,16c-2.929,2.929-2.929,7.678,0,10.606C387.661,34.266,389.581,34.999,391.5,34.999z"/>
	<path d="M468.803,310.196c-2.929-2.929-7.678-2.929-10.606,0c-2.929,2.929-2.929,7.678,0,10.606l8,8
		c1.464,1.464,3.384,2.197,5.303,2.197s3.839-0.732,5.303-2.197c2.929-2.929,2.929-7.678,0-10.606L468.803,310.196z"/>
	<path d="M198.685,277.652c0.004-0.015,0.008-0.03,0.013-0.044l0.014-0.048c0.015-0.054,0.023-0.108,0.038-0.162
		c0.046-0.177,0.09-0.353,0.123-0.532c0.021-0.111,0.032-0.222,0.048-0.334c0.018-0.127,0.038-0.253,0.049-0.38
		c0.012-0.139,0.015-0.277,0.02-0.416c0.003-0.101,0.009-0.202,0.008-0.304c-0.001-0.146-0.011-0.29-0.021-0.434
		c-0.006-0.098-0.011-0.196-0.021-0.293c-0.014-0.136-0.036-0.271-0.058-0.405c-0.018-0.108-0.034-0.216-0.056-0.323
		c-0.024-0.117-0.055-0.233-0.085-0.348c-0.032-0.124-0.063-0.247-0.101-0.369c-0.031-0.096-0.066-0.191-0.1-0.286
		c-0.049-0.136-0.098-0.272-0.155-0.406c-0.035-0.082-0.075-0.162-0.113-0.243c-0.065-0.138-0.13-0.276-0.203-0.411
		c-0.045-0.083-0.096-0.163-0.145-0.245c-0.074-0.124-0.147-0.248-0.229-0.369c-0.069-0.102-0.146-0.2-0.22-0.299
		c-0.07-0.093-0.136-0.187-0.21-0.277c-0.116-0.14-0.241-0.273-0.367-0.406c-0.038-0.04-0.071-0.083-0.11-0.122l-0.035-0.035
		c-0.011-0.011-0.022-0.023-0.034-0.034l-47.931-47.931c-2.929-2.929-7.678-2.929-10.606,0c-2.929,2.929-2.929,7.678,0,10.606
		l44.879,44.879l-12.1,42.349l-21.782-25.413c-2.696-3.145-7.431-3.509-10.575-0.813c-3.145,2.696-3.509,7.43-0.813,10.575l48,56
		c1.483,1.73,3.584,2.619,5.698,2.619c1.728,0,3.463-0.593,4.877-1.806c3.145-2.696,3.509-7.43,0.813-10.575l-14.525-16.946
		c0.012-0.039,0.031-0.073,0.042-0.112L198.685,277.652z"/>
	<path d="M86.615,297.127c-0.003-0.008-0.006-0.016-0.009-0.024c-0.076-0.226-0.163-0.448-0.26-0.666
		c-0.046-0.103-0.101-0.201-0.151-0.301c-0.059-0.119-0.115-0.238-0.181-0.354c-0.063-0.112-0.135-0.216-0.204-0.324
		c-0.063-0.099-0.123-0.199-0.19-0.295c-0.074-0.104-0.155-0.202-0.234-0.302c-0.073-0.093-0.143-0.187-0.22-0.276
		c-0.08-0.093-0.167-0.178-0.252-0.267c-0.085-0.089-0.167-0.18-0.257-0.265s-0.186-0.162-0.279-0.242
		c-0.092-0.079-0.18-0.16-0.276-0.234c-0.119-0.092-0.244-0.175-0.367-0.26c-0.078-0.053-0.151-0.11-0.232-0.161
		c-0.214-0.135-0.434-0.26-0.661-0.372l-15.989-7.994c-3.703-1.852-8.209-0.351-10.062,3.354c-1.853,3.705-0.351,8.21,3.354,10.062
		l13.221,6.611l7.018,21.053c1.048,3.143,3.974,5.13,7.114,5.13c0.786,0,1.586-0.125,2.373-0.387c3.93-1.31,6.053-5.557,4.744-9.487
		L86.615,297.127z"/>
</g>
<g>
</g>
<g>
</g>
<g>
</g>
<g>
</g>
<g>
</g>
<g>
</g>
<g>
</g>
<g>
</g>
<g>
</g>
<g>
</g>
<g>
</g>
<g>
</g>
<g>
</g>
<g>
</g>
<g>
</g>
</svg>
