<svg id="Outline" height="512" viewBox="0 0 512 512" width="512" xmlns="http://www.w3.org/2000/svg"><path d="m88 160h48a8 8 0 0 0 8-8v-40a32 32 0 0 0 -64 0v40a8 8 0 0 0 8 8zm8-16v-16h32v16zm16-48a16.019 16.019 0 0 1 16 16h-32a16.019 16.019 0 0 1 16-16z"/><path d="m184 160h48a8 8 0 0 0 8-8v-40a32 32 0 0 0 -64 0v40a8 8 0 0 0 8 8zm8-16v-16h32v16zm16-48a16.019 16.019 0 0 1 16 16h-32a16.019 16.019 0 0 1 16-16z"/><path d="m280 160h48a8 8 0 0 0 8-8v-40a32 32 0 0 0 -64 0v40a8 8 0 0 0 8 8zm8-16v-16h32v16zm16-48a16.019 16.019 0 0 1 16 16h-32a16.019 16.019 0 0 1 16-16z"/><path d="m280 288h48a8 8 0 0 0 8-8v-40a32 32 0 0 0 -64 0v40a8 8 0 0 0 8 8zm8-16v-16h32v16zm16-48a16.019 16.019 0 0 1 16 16h-32a16.019 16.019 0 0 1 16-16z"/><path d="m376 288h48a8 8 0 0 0 8-8v-40a32 32 0 0 0 -64 0v40a8 8 0 0 0 8 8zm8-16v-16h32v16zm16-48a16.019 16.019 0 0 1 16 16h-32a16.019 16.019 0 0 1 16-16z"/><path d="m184 288h48a8 8 0 0 0 8-8v-40a32 32 0 0 0 -64 0v40a8 8 0 0 0 8 8zm8-16v-16h32v16zm16-48a16.019 16.019 0 0 1 16 16h-32a16.019 16.019 0 0 1 16-16z"/><path d="m88 288h48a8 8 0 0 0 8-8v-40a32 32 0 0 0 -64 0v40a8 8 0 0 0 8 8zm8-16v-16h32v16zm16-48a16.019 16.019 0 0 1 16 16h-32a16.019 16.019 0 0 1 16-16z"/><path d="m376 160h48a8 8 0 0 0 8-8v-40a32 32 0 0 0 -64 0v40a8 8 0 0 0 8 8zm8-16v-16h32v16zm16-48a16.019 16.019 0 0 1 16 16h-32a16.019 16.019 0 0 1 16-16z"/><path d="m88 464h64a8 8 0 0 0 8-8v-112a8 8 0 0 0 -8-8h-64a8 8 0 0 0 -8 8v112a8 8 0 0 0 8 8zm56-16h-16v-96h16zm-48-96h16v96h-16z"/><path d="m360 464h64a8 8 0 0 0 8-8v-112a8 8 0 0 0 -8-8h-64a8 8 0 0 0 -8 8v112a8 8 0 0 0 8 8zm56-16h-16v-96h16zm-48-96h16v96h-16z"/><path d="m477.436 50.13-34.56-32a8 8 0 0 0 -5.436-2.13h-362.88a8 8 0 0 0 -5.435 2.13l-34.56 32a8 8 0 0 0 5.435 13.87h8v112a8 8 0 0 0 0 16v112a8 8 0 0 0 0 16v168a8 8 0 0 0 8 8h400a8 8 0 0 0 8-8v-168a8 8 0 0 0 0-16v-112a8 8 0 0 0 0-16v-112h8a8 8 0 0 0 5.436-13.87zm-399.741-18.13h356.611l17.279 16h-391.17zm178.305 320.026c4.259 1.518 14.662 22.836 15.88 63.974h-31.76c1.218-41.138 11.621-62.456 15.88-63.974zm24 79.974v48h-16v-48zm7.883-16c-.552-19.128-3.076-36.956-7.25-50.867q-1.441-4.8-3.088-8.817a56.083 56.083 0 0 1 34.455 51.684v8zm-56.516-50.867c-4.174 13.911-6.7 31.739-7.25 50.867h-24.117v-8a56.083 56.083 0 0 1 34.455-51.684q-1.645 4.019-3.088 8.817zm16.633 66.867v48h-16v-48zm200 48h-152v-48h24a8 8 0 0 0 8-8v-16a72 72 0 0 0 -144 0v16a8 8 0 0 0 8 8h24v48h-152v-160h384zm0-176h-384v-112h384zm0-128h-384v-112h384z"/></svg>