<?xml version="1.0"?>
<svg xmlns="http://www.w3.org/2000/svg" id="Layer_2" data-name="Layer 2" viewBox="0 0 128 128" width="512" height="512"><title>TNT</title><path d="M121.58,43.61h-18.7V36.88a1.763,1.763,0,0,0-1.76-1.76H86.75A1.754,1.754,0,0,0,85,36.88v6.73H78V17.5h24.25A5.757,5.757,0,0,0,108,11.75v-6A5.757,5.757,0,0,0,102.25,0H25.75A5.757,5.757,0,0,0,20,5.75v6a5.757,5.757,0,0,0,5.75,5.75H50V43.61H43V36.88a1.754,1.754,0,0,0-1.75-1.76H26.88a1.763,1.763,0,0,0-1.76,1.76v6.73H6.42a1.752,1.752,0,0,0-1.75,1.75V59.83a1.746,1.746,0,0,0,1.75,1.75H10v64.67A1.746,1.746,0,0,0,11.75,128h104.5a1.746,1.746,0,0,0,1.75-1.75V61.58h3.58a1.746,1.746,0,0,0,1.75-1.75V45.36A1.752,1.752,0,0,0,121.58,43.61ZM88.5,38.62H99.38v4.99H88.5ZM25.75,14a2.253,2.253,0,0,1-2.25-2.25v-6A2.253,2.253,0,0,1,25.75,3.5h76.5a2.253,2.253,0,0,1,2.25,2.25v6A2.253,2.253,0,0,1,102.25,14ZM74.5,17.5V43.61h-21V17.5ZM28.62,38.62H39.5v4.99H28.62ZM114.5,124.5H13.5V113.71h101Zm0-14.29H13.5V75.88h101Zm0-37.83H13.5V61.58h101Zm5.33-14.3H8.17V47.11H119.83Z"/><path d="M72.125,81.75a1.75,1.75,0,0,0-1.75,1.75V98.47L57.229,82.392a1.75,1.75,0,0,0-3.1,1.108v19.875a1.75,1.75,0,0,0,3.5,0V88.405l13.146,16.078a1.75,1.75,0,0,0,3.1-1.108V83.5A1.75,1.75,0,0,0,72.125,81.75Z"/><path d="M47,81.75H30.75a1.75,1.75,0,0,0,0,3.5h6.375v18.125a1.75,1.75,0,0,0,3.5,0V85.25H47a1.75,1.75,0,0,0,0-3.5Z"/><path d="M81,81.75a1.75,1.75,0,0,0,0,3.5h6.375v18.125a1.75,1.75,0,0,0,3.5,0V85.25H97.25a1.75,1.75,0,0,0,0-3.5Z"/></svg>
